<?xml version="1.0" standalone="no"?>
<!DOCTYPE svg PUBLIC "-//W3C//DTD SVG 20010904//EN"
 "http://www.w3.org/TR/2001/REC-SVG-20010904/DTD/svg10.dtd">
<svg version="1.0" xmlns="http://www.w3.org/2000/svg"
 width="86.000000pt" height="86.000000pt" viewBox="0 0 86.000000 86.000000"
 preserveAspectRatio="xMidYMid meet">
<metadata>
Created by potrace 1.14, written by Peter Selinger 2001-2017
</metadata>
<g transform="translate(0.000000,86.000000) scale(0.100000,-0.100000)"
fill="#000000" stroke="none">
<path d="M615 771 c-96 -47 -144 -75 -152 -92 -7 -13 -14 -54 -15 -90 l-3 -66
-140 67 -140 67 -3 -73 c-2 -41 2 -83 8 -94 6 -11 68 -47 142 -83 l132 -63
-104 -50 c-57 -27 -131 -62 -163 -79 l-60 -30 -1 -73 c-1 -40 1 -79 4 -87 4
-10 42 4 156 59 83 41 155 80 160 87 5 8 11 49 14 91 l5 77 140 -68 c77 -38
142 -67 143 -65 2 1 5 33 6 71 2 49 -2 75 -13 92 -10 15 -64 48 -143 86 l-128
61 155 74 155 75 0 88 c0 48 -3 87 -7 86 -5 0 -71 -31 -148 -68z"/>
</g>
</svg>
