<svg width="571" height="573" viewBox="0 0 571 573" fill="none" xmlns="http://www.w3.org/2000/svg">
<g clip-path="url(#clip0_4_1133)">
<path fill-rule="evenodd" clip-rule="evenodd" d="M285.5 571C443.177 571 571 443.177 571 285.5C571 127.823 443.177 0 285.5 0C127.823 0 0 127.823 0 285.5C0 443.177 127.823 571 285.5 571ZM285.5 298C292.404 298 298 292.404 298 285.5C298 278.596 292.404 273 285.5 273C278.596 273 273 278.596 273 285.5C273 292.404 278.596 298 285.5 298Z" fill="url(#paint0_linear_4_1133)"/>
<path d="M286.054 569.97C442.856 569.97 569.969 442.857 569.969 286.055C569.969 129.253 442.856 2.13989 286.054 2.13989C129.253 2.13989 2.13965 129.253 2.13965 286.055C2.13965 442.857 129.253 569.97 286.054 569.97Z" stroke="url(#paint1_linear_4_1133)" stroke-width="2.23922" stroke-miterlimit="10"/>
<path d="M286.054 564.399C439.78 564.399 564.399 439.78 564.399 286.055C564.399 132.329 439.78 7.71045 286.054 7.71045C132.329 7.71045 7.71021 132.329 7.71021 286.055C7.71021 439.78 132.329 564.399 286.054 564.399Z" stroke="url(#paint2_linear_4_1133)" stroke-width="2.23922" stroke-miterlimit="10"/>
<path d="M286.054 558.818C436.698 558.818 558.818 436.698 558.818 286.055C558.818 135.412 436.698 13.2912 286.054 13.2912C135.411 13.2912 13.291 135.412 13.291 286.055C13.291 436.698 135.411 558.818 286.054 558.818Z" stroke="url(#paint3_linear_4_1133)" stroke-width="2.23922" stroke-miterlimit="10"/>
<path d="M286.054 553.237C433.615 553.237 553.237 433.616 553.237 286.055C553.237 138.494 433.615 18.872 286.054 18.872C138.494 18.872 18.8717 138.494 18.8717 286.055C18.8717 433.616 138.494 553.237 286.054 553.237Z" stroke="url(#paint4_linear_4_1133)" stroke-width="2.23922" stroke-miterlimit="10"/>
<path d="M286.054 547.667C430.539 547.667 547.667 430.539 547.667 286.055C547.667 141.57 430.539 24.4425 286.054 24.4425C141.57 24.4425 24.4423 141.57 24.4423 286.055C24.4423 430.539 141.57 547.667 286.054 547.667Z" stroke="url(#paint5_linear_4_1133)" stroke-width="2.23922" stroke-miterlimit="10"/>
<path d="M286.054 542.086C427.457 542.086 542.086 427.457 542.086 286.055C542.086 144.652 427.457 30.0233 286.054 30.0233C144.652 30.0233 30.023 144.652 30.023 286.055C30.023 427.457 144.652 542.086 286.054 542.086Z" stroke="url(#paint6_linear_4_1133)" stroke-width="2.23922" stroke-miterlimit="10"/>
<path d="M286.054 536.505C424.375 536.505 536.505 424.375 536.505 286.055C536.505 147.735 424.375 35.6041 286.054 35.6041C147.734 35.6041 35.6038 147.735 35.6038 286.055C35.6038 424.375 147.734 536.505 286.054 536.505Z" stroke="url(#paint7_linear_4_1133)" stroke-width="2.23922" stroke-miterlimit="10"/>
<path d="M286.054 530.935C421.298 530.935 530.935 421.298 530.935 286.055C530.935 150.811 421.298 41.1746 286.054 41.1746C150.811 41.1746 41.1744 150.811 41.1744 286.055C41.1744 421.298 150.811 530.935 286.054 530.935Z" stroke="url(#paint8_linear_4_1133)" stroke-width="2.23922" stroke-miterlimit="10"/>
<path d="M286.054 525.354C418.216 525.354 525.354 418.216 525.354 286.055C525.354 153.893 418.216 46.7554 286.054 46.7554C153.893 46.7554 46.7551 153.893 46.7551 286.055C46.7551 418.216 153.893 525.354 286.054 525.354Z" stroke="url(#paint9_linear_4_1133)" stroke-width="2.23922" stroke-miterlimit="10"/>
<path d="M286.054 519.773C415.134 519.773 519.773 415.134 519.773 286.055C519.773 156.976 415.134 52.3361 286.054 52.3361C156.975 52.3361 52.3359 156.976 52.3359 286.055C52.3359 415.134 156.975 519.773 286.054 519.773Z" stroke="url(#paint10_linear_4_1133)" stroke-width="2.23922" stroke-miterlimit="10"/>
<path d="M286.054 514.203C412.057 514.203 514.203 412.057 514.203 286.055C514.203 160.052 412.057 57.9067 286.054 57.9067C160.052 57.9067 57.9064 160.052 57.9064 286.055C57.9064 412.057 160.052 514.203 286.054 514.203Z" stroke="url(#paint11_linear_4_1133)" stroke-width="2.23922" stroke-miterlimit="10"/>
<path d="M286.054 508.622C408.975 508.622 508.622 408.975 508.622 286.055C508.622 163.134 408.975 63.4875 286.054 63.4875C163.134 63.4875 63.4872 163.134 63.4872 286.055C63.4872 408.975 163.134 508.622 286.054 508.622Z" stroke="url(#paint12_linear_4_1133)" stroke-width="2.23922" stroke-miterlimit="10"/>
<path d="M286.054 497.471C402.816 497.471 497.47 402.817 497.47 286.055C497.47 169.293 402.816 74.6388 286.054 74.6388C169.293 74.6388 74.6385 169.293 74.6385 286.055C74.6385 402.817 169.293 497.471 286.054 497.471Z" stroke="url(#paint13_linear_4_1133)" stroke-width="2.23922" stroke-miterlimit="10"/>
<path d="M286.054 491.89C399.734 491.89 491.89 399.734 491.89 286.055C491.89 172.375 399.734 80.2195 286.054 80.2195C172.375 80.2195 80.2193 172.375 80.2193 286.055C80.2193 399.734 172.375 491.89 286.054 491.89Z" stroke="url(#paint14_linear_4_1133)" stroke-width="2.23922" stroke-miterlimit="10"/>
<path d="M286.054 486.309C396.652 486.309 486.309 396.652 486.309 286.055C486.309 175.457 396.652 85.8003 286.054 85.8003C175.457 85.8003 85.8001 175.457 85.8001 286.055C85.8001 396.652 175.457 486.309 286.054 486.309Z" stroke="url(#paint15_linear_4_1133)" stroke-width="2.23922" stroke-miterlimit="10"/>
<path d="M286.054 480.739C393.575 480.739 480.738 393.576 480.738 286.055C480.738 178.534 393.575 91.3709 286.054 91.3709C178.534 91.3709 91.3706 178.534 91.3706 286.055C91.3706 393.576 178.534 480.739 286.054 480.739Z" stroke="url(#paint16_linear_4_1133)" stroke-width="2.23922" stroke-miterlimit="10"/>
<path d="M286.054 475.158C390.493 475.158 475.158 390.494 475.158 286.055C475.158 181.616 390.493 96.9516 286.054 96.9516C181.616 96.9516 96.9514 181.616 96.9514 286.055C96.9514 390.494 181.616 475.158 286.054 475.158Z" stroke="url(#paint17_linear_4_1133)" stroke-width="2.23922" stroke-miterlimit="10"/>
<path d="M286.054 469.577C387.411 469.577 469.577 387.411 469.577 286.055C469.577 184.698 387.411 102.532 286.054 102.532C184.698 102.532 102.532 184.698 102.532 286.055C102.532 387.411 184.698 469.577 286.054 469.577Z" stroke="url(#paint18_linear_4_1133)" stroke-width="2.23922" stroke-miterlimit="10"/>
<path d="M286.054 464.007C384.335 464.007 464.006 384.335 464.006 286.055C464.006 187.775 384.335 108.103 286.054 108.103C187.774 108.103 108.103 187.775 108.103 286.055C108.103 384.335 187.774 464.007 286.054 464.007Z" stroke="url(#paint19_linear_4_1133)" stroke-width="2.23922" stroke-miterlimit="10"/>
<path d="M286.054 458.426C381.252 458.426 458.426 381.253 458.426 286.055C458.426 190.857 381.252 113.684 286.054 113.684C190.857 113.684 113.683 190.857 113.683 286.055C113.683 381.253 190.857 458.426 286.054 458.426Z" stroke="url(#paint20_linear_4_1133)" stroke-width="2.23922" stroke-miterlimit="10"/>
<path d="M286.054 452.845C378.17 452.845 452.845 378.17 452.845 286.055C452.845 193.939 378.17 119.264 286.054 119.264C193.939 119.264 119.264 193.939 119.264 286.055C119.264 378.17 193.939 452.845 286.054 452.845Z" stroke="url(#paint21_linear_4_1133)" stroke-width="2.23922" stroke-miterlimit="10"/>
<path d="M286.054 447.274C375.094 447.274 447.274 375.094 447.274 286.055C447.274 197.016 375.094 124.835 286.054 124.835C197.015 124.835 124.835 197.016 124.835 286.055C124.835 375.094 197.015 447.274 286.054 447.274Z" stroke="url(#paint22_linear_4_1133)" stroke-width="2.23922" stroke-miterlimit="10"/>
<path d="M286.054 436.113C368.929 436.113 436.113 368.93 436.113 286.055C436.113 203.18 368.929 135.997 286.054 135.997C203.18 135.997 135.996 203.18 135.996 286.055C135.996 368.93 203.18 436.113 286.054 436.113Z" stroke="url(#paint23_linear_4_1133)" stroke-width="2.23922" stroke-miterlimit="10"/>
<path d="M286.054 430.542C365.853 430.542 430.542 365.853 430.542 286.055C430.542 206.256 365.853 141.567 286.054 141.567C206.256 141.567 141.567 206.256 141.567 286.055C141.567 365.853 206.256 430.542 286.054 430.542Z" stroke="url(#paint24_linear_4_1133)" stroke-width="2.23922" stroke-miterlimit="10"/>
<path d="M286.054 424.962C362.771 424.962 424.961 362.771 424.961 286.055C424.961 209.339 362.771 147.148 286.054 147.148C209.338 147.148 147.148 209.339 147.148 286.055C147.148 362.771 209.338 424.962 286.054 424.962Z" stroke="url(#paint25_linear_4_1133)" stroke-width="2.23922" stroke-miterlimit="10"/>
<path d="M286.054 419.381C359.688 419.381 419.381 359.689 419.381 286.055C419.381 212.421 359.688 152.729 286.054 152.729C212.42 152.729 152.728 212.421 152.728 286.055C152.728 359.689 212.42 419.381 286.054 419.381Z" stroke="url(#paint26_linear_4_1133)" stroke-width="2.23922" stroke-miterlimit="10"/>
<path d="M286.054 413.81C356.612 413.81 413.81 356.612 413.81 286.055C413.81 215.497 356.612 158.299 286.054 158.299C215.497 158.299 158.299 215.497 158.299 286.055C158.299 356.612 215.497 413.81 286.054 413.81Z" stroke="url(#paint27_linear_4_1133)" stroke-width="2.23922" stroke-miterlimit="10"/>
<path d="M286.054 408.23C353.53 408.23 408.229 353.53 408.229 286.055C408.229 218.579 353.53 163.88 286.054 163.88C218.579 163.88 163.88 218.579 163.88 286.055C163.88 353.53 218.579 408.23 286.054 408.23Z" stroke="url(#paint28_linear_4_1133)" stroke-width="2.23922" stroke-miterlimit="10"/>
<path d="M286.054 402.649C350.448 402.649 402.649 350.448 402.649 286.055C402.649 221.662 350.448 169.461 286.054 169.461C221.661 169.461 169.46 221.662 169.46 286.055C169.46 350.448 221.661 402.649 286.054 402.649Z" stroke="url(#paint29_linear_4_1133)" stroke-width="2.23922" stroke-miterlimit="10"/>
<path d="M286.054 397.078C347.371 397.078 397.078 347.371 397.078 286.055C397.078 224.738 347.371 175.031 286.054 175.031C224.738 175.031 175.031 224.738 175.031 286.055C175.031 347.371 224.738 397.078 286.054 397.078Z" stroke="url(#paint30_linear_4_1133)" stroke-width="2.23922" stroke-miterlimit="10"/>
<path d="M286.054 385.917C341.207 385.917 385.916 341.207 385.916 286.055C385.916 230.902 341.207 186.193 286.054 186.193C230.902 186.193 186.193 230.902 186.193 286.055C186.193 341.207 230.902 385.917 286.054 385.917Z" stroke="url(#paint31_linear_4_1133)" stroke-width="2.23922" stroke-miterlimit="10"/>
<path d="M286.054 380.346C338.13 380.346 380.346 338.13 380.346 286.055C380.346 233.979 338.13 191.763 286.054 191.763C233.979 191.763 191.763 233.979 191.763 286.055C191.763 338.13 233.979 380.346 286.054 380.346Z" stroke="url(#paint32_linear_4_1133)" stroke-width="2.23922" stroke-miterlimit="10"/>
<path d="M286.054 369.185C331.966 369.185 369.184 331.966 369.184 286.055C369.184 240.143 331.966 202.925 286.054 202.925C240.143 202.925 202.925 240.143 202.925 286.055C202.925 331.966 240.143 369.185 286.054 369.185Z" stroke="url(#paint33_linear_4_1133)" stroke-width="2.23922" stroke-miterlimit="10"/>
<path d="M286.054 363.614C328.889 363.614 363.614 328.89 363.614 286.055C363.614 243.22 328.889 208.495 286.054 208.495C243.22 208.495 208.495 243.22 208.495 286.055C208.495 328.89 243.22 363.614 286.054 363.614Z" stroke="url(#paint34_linear_4_1133)" stroke-width="2.23922" stroke-miterlimit="10"/>
<path d="M286.054 358.033C325.807 358.033 358.033 325.807 358.033 286.055C358.033 246.302 325.807 214.076 286.054 214.076C246.302 214.076 214.076 246.302 214.076 286.055C214.076 325.807 246.302 358.033 286.054 358.033Z" stroke="url(#paint35_linear_4_1133)" stroke-width="2.23922" stroke-miterlimit="10"/>
<path d="M286.054 352.452C322.725 352.452 352.452 322.725 352.452 286.055C352.452 249.384 322.725 219.657 286.054 219.657C249.384 219.657 219.657 249.384 219.657 286.055C219.657 322.725 249.384 352.452 286.054 352.452Z" stroke="url(#paint36_linear_4_1133)" stroke-width="2.23922" stroke-miterlimit="10"/>
<path d="M286.054 346.882C319.648 346.882 346.882 319.649 346.882 286.055C346.882 252.461 319.648 225.228 286.054 225.228C252.461 225.228 225.227 252.461 225.227 286.055C225.227 319.649 252.461 346.882 286.054 346.882Z" stroke="url(#paint37_linear_4_1133)" stroke-width="2.23922" stroke-miterlimit="10"/>
<path d="M286.054 341.301C316.566 341.301 341.301 316.567 341.301 286.055C341.301 255.543 316.566 230.808 286.054 230.808C255.543 230.808 230.808 255.543 230.808 286.055C230.808 316.567 255.543 341.301 286.054 341.301Z" stroke="url(#paint38_linear_4_1133)" stroke-width="2.23922" stroke-miterlimit="10"/>
<path d="M286.054 330.15C310.408 330.15 330.15 310.408 330.15 286.055C330.15 261.702 310.408 241.96 286.054 241.96C261.701 241.96 241.959 261.702 241.959 286.055C241.959 310.408 261.701 330.15 286.054 330.15Z" stroke="url(#paint39_linear_4_1133)" stroke-width="2.23922" stroke-miterlimit="10"/>
<mask id="path-3-inside-1_4_1133" fill="white">
<path fill-rule="evenodd" clip-rule="evenodd" d="M285.5 571C443.177 571 571 443.177 571 285.5C571 127.823 443.177 0 285.5 0C127.823 0 0 127.823 0 285.5C0 443.177 127.823 571 285.5 571ZM285.5 297C291.851 297 297 291.851 297 285.5C297 279.149 291.851 274 285.5 274C279.149 274 274 279.149 274 285.5C274 291.851 279.149 297 285.5 297Z"/>
</mask>
<path fill-rule="evenodd" clip-rule="evenodd" d="M285.5 571C443.177 571 571 443.177 571 285.5C571 127.823 443.177 0 285.5 0C127.823 0 0 127.823 0 285.5C0 443.177 127.823 571 285.5 571ZM285.5 297C291.851 297 297 291.851 297 285.5C297 279.149 291.851 274 285.5 274C279.149 274 274 279.149 274 285.5C274 291.851 279.149 297 285.5 297Z" fill="url(#paint40_linear_4_1133)"/>
<path fill-rule="evenodd" clip-rule="evenodd" d="M285.5 571C443.177 571 571 443.177 571 285.5C571 127.823 443.177 0 285.5 0C127.823 0 0 127.823 0 285.5C0 443.177 127.823 571 285.5 571ZM285.5 297C291.851 297 297 291.851 297 285.5C297 279.149 291.851 274 285.5 274C279.149 274 274 279.149 274 285.5C274 291.851 279.149 297 285.5 297Z" fill="url(#paint41_linear_4_1133)"/>
<path d="M567.64 285.5C567.64 441.322 441.322 567.64 285.5 567.64V574.36C445.033 574.36 574.36 445.033 574.36 285.5H567.64ZM285.5 3.36C441.322 3.36 567.64 129.678 567.64 285.5H574.36C574.36 125.967 445.033 -3.36 285.5 -3.36V3.36ZM3.36 285.5C3.36 129.678 129.678 3.36 285.5 3.36V-3.36C125.967 -3.36 -3.36 125.967 -3.36 285.5H3.36ZM285.5 567.64C129.678 567.64 3.36 441.322 3.36 285.5H-3.36C-3.36 445.033 125.967 574.36 285.5 574.36V567.64ZM293.64 285.5C293.64 289.996 289.996 293.64 285.5 293.64V300.36C293.707 300.36 300.36 293.707 300.36 285.5H293.64ZM285.5 277.36C289.996 277.36 293.64 281.004 293.64 285.5H300.36C300.36 277.293 293.707 270.64 285.5 270.64V277.36ZM277.36 285.5C277.36 281.004 281.004 277.36 285.5 277.36V270.64C277.293 270.64 270.64 277.293 270.64 285.5H277.36ZM285.5 293.64C281.004 293.64 277.36 289.996 277.36 285.5H270.64C270.64 293.707 277.293 300.36 285.5 300.36V293.64Z" fill="url(#paint42_linear_4_1133)" mask="url(#path-3-inside-1_4_1133)"/>
<path d="M567.64 285.5C567.64 441.322 441.322 567.64 285.5 567.64V574.36C445.033 574.36 574.36 445.033 574.36 285.5H567.64ZM285.5 3.36C441.322 3.36 567.64 129.678 567.64 285.5H574.36C574.36 125.967 445.033 -3.36 285.5 -3.36V3.36ZM3.36 285.5C3.36 129.678 129.678 3.36 285.5 3.36V-3.36C125.967 -3.36 -3.36 125.967 -3.36 285.5H3.36ZM285.5 567.64C129.678 567.64 3.36 441.322 3.36 285.5H-3.36C-3.36 445.033 125.967 574.36 285.5 574.36V567.64ZM293.64 285.5C293.64 289.996 289.996 293.64 285.5 293.64V300.36C293.707 300.36 300.36 293.707 300.36 285.5H293.64ZM285.5 277.36C289.996 277.36 293.64 281.004 293.64 285.5H300.36C300.36 277.293 293.707 270.64 285.5 270.64V277.36ZM277.36 285.5C277.36 281.004 281.004 277.36 285.5 277.36V270.64C277.293 270.64 270.64 277.293 270.64 285.5H277.36ZM285.5 293.64C281.004 293.64 277.36 289.996 277.36 285.5H270.64C270.64 293.707 277.293 300.36 285.5 300.36V293.64Z" fill="url(#paint43_linear_4_1133)" mask="url(#path-3-inside-1_4_1133)"/>
<mask id="mask0_4_1133" style="mask-type:alpha" maskUnits="userSpaceOnUse" x="-55" y="76" width="674" height="460">
<g style="mix-blend-mode:color-dodge">
<path d="M367.231 214.965V237.357L381.786 285.5L407.537 263.108L422.092 278.782L457.92 263.108L472.475 278.782L494.867 263.108L515.02 291.098L534.053 272.065L549.728 291.098L560.924 285.5L587.794 309.012L610.186 291.098L618.024 222.802L568.761 137.712L494.867 76.1334L480.312 127.635L457.92 115.32L447.843 174.659L413.135 162.343L407.537 191.453H388.504L381.786 222.802L367.231 214.965Z" fill="white" fill-opacity="0.2"/>
</g>
<g style="mix-blend-mode:color-dodge">
<path d="M258.031 361.229L252.475 339.537L222.946 297.402L197.391 327.062L175.918 316.382L136.522 342.652L115.048 331.971L91.8845 354.084L60.5923 333.205L42.3196 357.533L18.6602 343.945L6.52265 352.832L-31.7743 338.37L-54.3827 362.652L-46.9065 431.238L33.7215 498.424L138.274 535.213L143.081 480.817L173.189 485.819L170.641 425.218L215.628 426.409L215.169 396.477L238.164 390.588L238.502 358.14L258.031 361.229Z" fill="white" fill-opacity="0.18"/>
</g>
</mask>
<g mask="url(#mask0_4_1133)">
<circle cx="285.5" cy="286.5" r="285.5" fill="#D9D9D9"/>
</g>
<path fill-rule="evenodd" clip-rule="evenodd" d="M286.243 390.486C344.367 390.486 391.486 343.367 391.486 285.243C391.486 227.119 344.367 180 286.243 180C228.119 180 181 227.119 181 285.243C181 343.367 228.119 390.486 286.243 390.486ZM285.818 294.893C291.382 294.893 295.893 290.382 295.893 284.818C295.893 279.254 291.382 274.743 285.818 274.743C280.254 274.743 275.743 279.254 275.743 284.818C275.743 290.382 280.254 294.893 285.818 294.893Z" fill="#142CFF"/>
<path d="M267.93 353.677H270.353V350.185H273.009C275.533 350.185 276.88 348.327 276.88 346.301C276.88 344.367 275.649 342.671 273.225 342.671H267.93V353.677ZM270.353 347.959V344.927H272.831C273.86 344.927 274.425 345.51 274.425 346.393C274.425 347.352 273.76 347.959 272.707 347.959H270.353Z" fill="#121212"/>
<path d="M277.868 353.677H280.221V349.739C280.221 348.151 281.104 347.491 282.381 347.491C282.629 347.491 282.885 347.514 283.163 347.552L283.194 345.288C282.962 345.249 282.769 345.234 282.544 345.234C281.46 345.234 280.616 345.579 280.183 346.838V345.319H277.868V353.677Z" fill="#121212"/>
<path d="M287.357 353.8C289.253 353.8 290.577 352.932 291.158 351.627L288.998 351.052C288.766 351.497 288.317 351.919 287.419 351.919C286.335 351.919 285.715 351.29 285.638 350.277H291.29V349.072C291.29 346.708 289.842 345.165 287.395 345.165C284.856 345.165 283.253 346.846 283.253 349.548C283.253 352.157 284.747 353.8 287.357 353.8ZM285.646 348.696C285.762 347.659 286.404 347.038 287.388 347.038C288.255 347.038 288.936 347.537 288.936 348.665V348.696H285.646Z" fill="#121212"/>
<path d="M295.816 353.8C298.007 353.8 299.462 352.625 299.462 350.898C299.462 348.949 297.612 348.757 296.133 348.596C295.104 348.481 294.236 348.373 294.236 347.721C294.236 347.276 294.639 346.961 295.46 346.961C296.412 346.961 296.892 347.368 297.086 347.982L299.3 347.483C298.928 346.132 297.666 345.165 295.537 345.165C293.315 345.165 291.898 346.216 291.898 347.943C291.898 349.924 293.764 350.177 295.297 350.376C296.296 350.507 297.117 350.614 297.117 351.221C297.117 351.681 296.629 351.996 295.847 351.996C294.902 351.996 294.283 351.558 294.066 350.898L291.836 351.405C292.309 352.848 293.834 353.8 295.816 353.8Z" fill="#121212"/>
<path d="M303.989 353.8C306.18 353.8 307.635 352.625 307.635 350.898C307.635 348.949 305.785 348.757 304.306 348.596C303.276 348.481 302.409 348.373 302.409 347.721C302.409 347.276 302.812 346.961 303.632 346.961C304.585 346.961 305.065 347.368 305.258 347.982L307.473 347.483C307.101 346.132 305.839 345.165 303.71 345.165C301.488 345.165 300.071 346.216 300.071 347.943C300.071 349.924 301.937 350.177 303.47 350.376C304.469 350.507 305.289 350.614 305.289 351.221C305.289 351.681 304.801 351.996 304.02 351.996C303.075 351.996 302.456 351.558 302.239 350.898L300.009 351.405C300.481 352.848 302.007 353.8 303.989 353.8Z" fill="#121212"/>
<path d="M308.7 353.677H311.054V342.417H308.7V353.677Z" fill="#121212"/>
<path d="M312.514 354.429L312.414 356.378C312.917 356.486 313.412 356.555 313.9 356.555C315.34 356.555 316.602 355.979 317.206 354.344L320.535 345.319H318.011L316.215 350.891L314.311 345.319H311.779L314.961 353.493C314.636 354.283 314.163 354.536 313.474 354.536C313.196 354.536 312.87 354.49 312.514 354.429Z" fill="#121212"/>
<path d="M256.418 347.726C256.248 347.726 256.085 347.793 255.964 347.912C255.844 348.032 255.776 348.194 255.776 348.362C255.776 348.531 255.844 348.693 255.964 348.812C256.085 348.932 256.248 348.999 256.418 348.999C256.588 348.999 256.751 348.932 256.872 348.812C256.992 348.693 257.06 348.531 257.06 348.362C257.06 348.194 256.992 348.032 256.872 347.912C256.751 347.793 256.588 347.726 256.418 347.726ZM256.418 351.225C254.813 351.225 253.53 349.953 253.53 348.362C253.53 346.772 254.813 345.499 256.418 345.499C258.022 345.499 259.306 346.772 259.306 348.362C259.306 349.953 258.022 351.225 256.418 351.225ZM256.418 342C255.575 342 254.741 342.165 253.962 342.484C253.183 342.804 252.476 343.273 251.88 343.863C250.676 345.057 250 346.675 250 348.362C250 350.05 250.676 351.668 251.88 352.861C252.476 353.452 253.183 353.921 253.962 354.24C254.741 354.56 255.575 354.725 256.418 354.725C258.12 354.725 259.753 354.054 260.956 352.861C262.16 351.668 262.836 350.05 262.836 348.362C262.836 347.527 262.67 346.699 262.347 345.928C262.025 345.156 261.552 344.454 260.956 343.863C260.36 343.273 259.653 342.804 258.874 342.484C258.095 342.165 257.261 342 256.418 342Z" fill="#121212"/>
</g>
<defs>
<linearGradient id="paint0_linear_4_1133" x1="285.5" y1="0" x2="285.5" y2="571" gradientUnits="userSpaceOnUse">
<stop stop-color="#FF0000"/>
<stop offset="1" stop-color="#FF0000" stop-opacity="0"/>
</linearGradient>
<linearGradient id="paint1_linear_4_1133" x1="506.063" y1="-3.3588" x2="48.143" y2="522.857" gradientUnits="userSpaceOnUse">
<stop/>
<stop offset="1" stop-opacity="0"/>
</linearGradient>
<linearGradient id="paint2_linear_4_1133" x1="506.063" y1="-3.3588" x2="48.143" y2="522.857" gradientUnits="userSpaceOnUse">
<stop/>
<stop offset="1" stop-opacity="0"/>
</linearGradient>
<linearGradient id="paint3_linear_4_1133" x1="506.063" y1="-3.3588" x2="48.143" y2="522.857" gradientUnits="userSpaceOnUse">
<stop/>
<stop offset="1" stop-opacity="0"/>
</linearGradient>
<linearGradient id="paint4_linear_4_1133" x1="506.063" y1="-3.3588" x2="48.143" y2="522.857" gradientUnits="userSpaceOnUse">
<stop/>
<stop offset="1" stop-opacity="0"/>
</linearGradient>
<linearGradient id="paint5_linear_4_1133" x1="506.063" y1="-3.3588" x2="48.143" y2="522.857" gradientUnits="userSpaceOnUse">
<stop/>
<stop offset="1" stop-opacity="0"/>
</linearGradient>
<linearGradient id="paint6_linear_4_1133" x1="506.063" y1="-3.3588" x2="48.143" y2="522.857" gradientUnits="userSpaceOnUse">
<stop/>
<stop offset="1" stop-opacity="0"/>
</linearGradient>
<linearGradient id="paint7_linear_4_1133" x1="506.063" y1="-3.3588" x2="48.143" y2="522.857" gradientUnits="userSpaceOnUse">
<stop/>
<stop offset="1" stop-opacity="0"/>
</linearGradient>
<linearGradient id="paint8_linear_4_1133" x1="506.063" y1="-3.3588" x2="48.143" y2="522.857" gradientUnits="userSpaceOnUse">
<stop/>
<stop offset="1" stop-opacity="0"/>
</linearGradient>
<linearGradient id="paint9_linear_4_1133" x1="506.063" y1="-3.3588" x2="48.143" y2="522.857" gradientUnits="userSpaceOnUse">
<stop/>
<stop offset="1" stop-opacity="0"/>
</linearGradient>
<linearGradient id="paint10_linear_4_1133" x1="506.063" y1="-3.3588" x2="48.143" y2="522.857" gradientUnits="userSpaceOnUse">
<stop/>
<stop offset="1" stop-opacity="0"/>
</linearGradient>
<linearGradient id="paint11_linear_4_1133" x1="506.063" y1="-3.3588" x2="48.143" y2="522.857" gradientUnits="userSpaceOnUse">
<stop/>
<stop offset="1" stop-opacity="0"/>
</linearGradient>
<linearGradient id="paint12_linear_4_1133" x1="506.063" y1="-3.3588" x2="48.143" y2="522.857" gradientUnits="userSpaceOnUse">
<stop/>
<stop offset="1" stop-opacity="0"/>
</linearGradient>
<linearGradient id="paint13_linear_4_1133" x1="506.063" y1="-3.3588" x2="48.143" y2="522.857" gradientUnits="userSpaceOnUse">
<stop/>
<stop offset="1" stop-opacity="0"/>
</linearGradient>
<linearGradient id="paint14_linear_4_1133" x1="506.063" y1="-3.3588" x2="48.143" y2="522.857" gradientUnits="userSpaceOnUse">
<stop/>
<stop offset="1" stop-opacity="0"/>
</linearGradient>
<linearGradient id="paint15_linear_4_1133" x1="506.063" y1="-3.3588" x2="48.143" y2="522.857" gradientUnits="userSpaceOnUse">
<stop/>
<stop offset="1" stop-opacity="0"/>
</linearGradient>
<linearGradient id="paint16_linear_4_1133" x1="506.063" y1="-3.3588" x2="48.143" y2="522.857" gradientUnits="userSpaceOnUse">
<stop/>
<stop offset="1" stop-opacity="0"/>
</linearGradient>
<linearGradient id="paint17_linear_4_1133" x1="506.063" y1="-3.3588" x2="48.143" y2="522.857" gradientUnits="userSpaceOnUse">
<stop/>
<stop offset="1" stop-opacity="0"/>
</linearGradient>
<linearGradient id="paint18_linear_4_1133" x1="506.063" y1="-3.3588" x2="48.143" y2="522.857" gradientUnits="userSpaceOnUse">
<stop/>
<stop offset="1" stop-opacity="0"/>
</linearGradient>
<linearGradient id="paint19_linear_4_1133" x1="506.063" y1="-3.3588" x2="48.143" y2="522.857" gradientUnits="userSpaceOnUse">
<stop/>
<stop offset="1" stop-opacity="0"/>
</linearGradient>
<linearGradient id="paint20_linear_4_1133" x1="506.063" y1="-3.3588" x2="48.143" y2="522.857" gradientUnits="userSpaceOnUse">
<stop/>
<stop offset="1" stop-opacity="0"/>
</linearGradient>
<linearGradient id="paint21_linear_4_1133" x1="506.063" y1="-3.3588" x2="48.143" y2="522.857" gradientUnits="userSpaceOnUse">
<stop/>
<stop offset="1" stop-opacity="0"/>
</linearGradient>
<linearGradient id="paint22_linear_4_1133" x1="506.063" y1="-3.3588" x2="48.143" y2="522.857" gradientUnits="userSpaceOnUse">
<stop/>
<stop offset="1" stop-opacity="0"/>
</linearGradient>
<linearGradient id="paint23_linear_4_1133" x1="506.063" y1="-3.3588" x2="48.143" y2="522.857" gradientUnits="userSpaceOnUse">
<stop/>
<stop offset="1" stop-opacity="0"/>
</linearGradient>
<linearGradient id="paint24_linear_4_1133" x1="506.063" y1="-3.3588" x2="48.143" y2="522.857" gradientUnits="userSpaceOnUse">
<stop/>
<stop offset="1" stop-opacity="0"/>
</linearGradient>
<linearGradient id="paint25_linear_4_1133" x1="506.063" y1="-3.3588" x2="48.143" y2="522.857" gradientUnits="userSpaceOnUse">
<stop/>
<stop offset="1" stop-opacity="0"/>
</linearGradient>
<linearGradient id="paint26_linear_4_1133" x1="506.063" y1="-3.3588" x2="48.143" y2="522.857" gradientUnits="userSpaceOnUse">
<stop/>
<stop offset="1" stop-opacity="0"/>
</linearGradient>
<linearGradient id="paint27_linear_4_1133" x1="506.063" y1="-3.3588" x2="48.143" y2="522.857" gradientUnits="userSpaceOnUse">
<stop/>
<stop offset="1" stop-opacity="0"/>
</linearGradient>
<linearGradient id="paint28_linear_4_1133" x1="506.063" y1="-3.3588" x2="48.143" y2="522.857" gradientUnits="userSpaceOnUse">
<stop/>
<stop offset="1" stop-opacity="0"/>
</linearGradient>
<linearGradient id="paint29_linear_4_1133" x1="506.063" y1="-3.3588" x2="48.143" y2="522.857" gradientUnits="userSpaceOnUse">
<stop/>
<stop offset="1" stop-opacity="0"/>
</linearGradient>
<linearGradient id="paint30_linear_4_1133" x1="506.063" y1="-3.3588" x2="48.143" y2="522.857" gradientUnits="userSpaceOnUse">
<stop/>
<stop offset="1" stop-opacity="0"/>
</linearGradient>
<linearGradient id="paint31_linear_4_1133" x1="506.063" y1="-3.3588" x2="48.143" y2="522.857" gradientUnits="userSpaceOnUse">
<stop/>
<stop offset="1" stop-opacity="0"/>
</linearGradient>
<linearGradient id="paint32_linear_4_1133" x1="506.063" y1="-3.3588" x2="48.143" y2="522.857" gradientUnits="userSpaceOnUse">
<stop/>
<stop offset="1" stop-opacity="0"/>
</linearGradient>
<linearGradient id="paint33_linear_4_1133" x1="506.063" y1="-3.3588" x2="48.143" y2="522.857" gradientUnits="userSpaceOnUse">
<stop/>
<stop offset="1" stop-opacity="0"/>
</linearGradient>
<linearGradient id="paint34_linear_4_1133" x1="506.063" y1="-3.3588" x2="48.143" y2="522.857" gradientUnits="userSpaceOnUse">
<stop/>
<stop offset="1" stop-opacity="0"/>
</linearGradient>
<linearGradient id="paint35_linear_4_1133" x1="506.063" y1="-3.3588" x2="48.143" y2="522.857" gradientUnits="userSpaceOnUse">
<stop/>
<stop offset="1" stop-opacity="0"/>
</linearGradient>
<linearGradient id="paint36_linear_4_1133" x1="506.063" y1="-3.3588" x2="48.143" y2="522.857" gradientUnits="userSpaceOnUse">
<stop/>
<stop offset="1" stop-opacity="0"/>
</linearGradient>
<linearGradient id="paint37_linear_4_1133" x1="506.063" y1="-3.3588" x2="48.143" y2="522.857" gradientUnits="userSpaceOnUse">
<stop/>
<stop offset="1" stop-opacity="0"/>
</linearGradient>
<linearGradient id="paint38_linear_4_1133" x1="506.063" y1="-3.3588" x2="48.143" y2="522.857" gradientUnits="userSpaceOnUse">
<stop/>
<stop offset="1" stop-opacity="0"/>
</linearGradient>
<linearGradient id="paint39_linear_4_1133" x1="506.063" y1="-3.3588" x2="48.143" y2="522.857" gradientUnits="userSpaceOnUse">
<stop/>
<stop offset="1" stop-opacity="0"/>
</linearGradient>
<linearGradient id="paint40_linear_4_1133" x1="-195.931" y1="-153.386" x2="511.973" y2="544.396" gradientUnits="userSpaceOnUse">
<stop stop-color="white" stop-opacity="0.11"/>
<stop offset="0.598958" stop-color="white" stop-opacity="0.03"/>
<stop offset="1" stop-color="white" stop-opacity="0.12"/>
</linearGradient>
<linearGradient id="paint41_linear_4_1133" x1="571" y1="571" x2="19.1418" y2="-55.9418" gradientUnits="userSpaceOnUse">
<stop stop-opacity="0.32"/>
<stop offset="0.375" stop-opacity="0.49"/>
<stop offset="0.817708" stop-opacity="0"/>
</linearGradient>
<linearGradient id="paint42_linear_4_1133" x1="48.1431" y1="-7.83725" x2="276.543" y2="328.045" gradientUnits="userSpaceOnUse">
<stop stop-color="white"/>
<stop offset="1" stop-color="white" stop-opacity="0"/>
</linearGradient>
<linearGradient id="paint43_linear_4_1133" x1="510.541" y1="385.145" x2="34.7078" y2="75.0137" gradientUnits="userSpaceOnUse">
<stop/>
<stop offset="0.536458" stop-opacity="0.88"/>
<stop offset="1" stop-opacity="0"/>
</linearGradient>
<clipPath id="clip0_4_1133">
<rect width="571" height="573" fill="white"/>
</clipPath>
</defs>
</svg>
