<svg width="570" height="571" viewBox="0 0 570 571" fill="none" xmlns="http://www.w3.org/2000/svg">
<path d="M285.054 568.97C441.856 568.97 568.969 441.857 568.969 285.055C568.969 128.253 441.856 1.13989 285.054 1.13989C128.253 1.13989 1.13965 128.253 1.13965 285.055C1.13965 441.857 128.253 568.97 285.054 568.97Z" stroke="url(#paint0_linear_5_1310)" stroke-width="2.23922" stroke-miterlimit="10"/>
<path d="M285.054 563.399C438.78 563.399 563.399 438.78 563.399 285.055C563.399 131.329 438.78 6.71045 285.054 6.71045C131.329 6.71045 6.70996 131.329 6.70996 285.055C6.70996 438.78 131.329 563.399 285.054 563.399Z" stroke="url(#paint1_linear_5_1310)" stroke-width="2.23922" stroke-miterlimit="10"/>
<path d="M285.054 557.818C435.698 557.818 557.818 435.698 557.818 285.055C557.818 134.412 435.698 12.2912 285.054 12.2912C134.411 12.2912 12.291 134.412 12.291 285.055C12.291 435.698 134.411 557.818 285.054 557.818Z" stroke="url(#paint2_linear_5_1310)" stroke-width="2.23922" stroke-miterlimit="10"/>
<path d="M285.054 552.237C432.615 552.237 552.237 432.616 552.237 285.055C552.237 137.494 432.615 17.872 285.054 17.872C137.494 17.872 17.8716 137.494 17.8716 285.055C17.8716 432.616 137.494 552.237 285.054 552.237Z" stroke="url(#paint3_linear_5_1310)" stroke-width="2.23922" stroke-miterlimit="10"/>
<path d="M285.054 546.667C429.539 546.667 546.667 429.539 546.667 285.055C546.667 140.57 429.539 23.4425 285.054 23.4425C140.57 23.4425 23.4424 140.57 23.4424 285.055C23.4424 429.539 140.57 546.667 285.054 546.667Z" stroke="url(#paint4_linear_5_1310)" stroke-width="2.23922" stroke-miterlimit="10"/>
<path d="M285.054 541.086C426.457 541.086 541.086 426.457 541.086 285.055C541.086 143.652 426.457 29.0233 285.054 29.0233C143.652 29.0233 29.0229 143.652 29.0229 285.055C29.0229 426.457 143.652 541.086 285.054 541.086Z" stroke="url(#paint5_linear_5_1310)" stroke-width="2.23922" stroke-miterlimit="10"/>
<path d="M285.054 535.505C423.375 535.505 535.505 423.375 535.505 285.055C535.505 146.735 423.375 34.6041 285.054 34.6041C146.734 34.6041 34.6035 146.735 34.6035 285.055C34.6035 423.375 146.734 535.505 285.054 535.505Z" stroke="url(#paint6_linear_5_1310)" stroke-width="2.23922" stroke-miterlimit="10"/>
<path d="M285.054 529.935C420.298 529.935 529.935 420.298 529.935 285.055C529.935 149.811 420.298 40.1746 285.054 40.1746C149.811 40.1746 40.1743 149.811 40.1743 285.055C40.1743 420.298 149.811 529.935 285.054 529.935Z" stroke="url(#paint7_linear_5_1310)" stroke-width="2.23922" stroke-miterlimit="10"/>
<path d="M285.054 524.354C417.216 524.354 524.354 417.216 524.354 285.055C524.354 152.893 417.216 45.7554 285.054 45.7554C152.893 45.7554 45.7549 152.893 45.7549 285.055C45.7549 417.216 152.893 524.354 285.054 524.354Z" stroke="url(#paint8_linear_5_1310)" stroke-width="2.23922" stroke-miterlimit="10"/>
<path d="M285.054 518.773C414.134 518.773 518.773 414.134 518.773 285.055C518.773 155.976 414.134 51.3361 285.054 51.3361C155.975 51.3361 51.3359 155.976 51.3359 285.055C51.3359 414.134 155.975 518.773 285.054 518.773Z" stroke="url(#paint9_linear_5_1310)" stroke-width="2.23922" stroke-miterlimit="10"/>
<path d="M285.054 513.203C411.057 513.203 513.203 411.057 513.203 285.055C513.203 159.052 411.057 56.9067 285.054 56.9067C159.052 56.9067 56.9062 159.052 56.9062 285.055C56.9062 411.057 159.052 513.203 285.054 513.203Z" stroke="url(#paint10_linear_5_1310)" stroke-width="2.23922" stroke-miterlimit="10"/>
<path d="M285.054 507.622C407.975 507.622 507.622 407.975 507.622 285.055C507.622 162.134 407.975 62.4875 285.054 62.4875C162.134 62.4875 62.4873 162.134 62.4873 285.055C62.4873 407.975 162.134 507.622 285.054 507.622Z" stroke="url(#paint11_linear_5_1310)" stroke-width="2.23922" stroke-miterlimit="10"/>
<path d="M285.054 496.471C401.816 496.471 496.47 401.817 496.47 285.055C496.47 168.293 401.816 73.6388 285.054 73.6388C168.293 73.6388 73.6382 168.293 73.6382 285.055C73.6382 401.817 168.293 496.471 285.054 496.471Z" stroke="url(#paint12_linear_5_1310)" stroke-width="2.23922" stroke-miterlimit="10"/>
<path d="M285.054 490.89C398.734 490.89 490.89 398.734 490.89 285.055C490.89 171.375 398.734 79.2195 285.054 79.2195C171.375 79.2195 79.2192 171.375 79.2192 285.055C79.2192 398.734 171.375 490.89 285.054 490.89Z" stroke="url(#paint13_linear_5_1310)" stroke-width="2.23922" stroke-miterlimit="10"/>
<path d="M285.054 485.309C395.652 485.309 485.309 395.652 485.309 285.055C485.309 174.457 395.652 84.8003 285.054 84.8003C174.457 84.8003 84.7998 174.457 84.7998 285.055C84.7998 395.652 174.457 485.309 285.054 485.309Z" stroke="url(#paint14_linear_5_1310)" stroke-width="2.23922" stroke-miterlimit="10"/>
<path d="M285.054 479.739C392.575 479.739 479.738 392.576 479.738 285.055C479.738 177.534 392.575 90.3709 285.054 90.3709C177.534 90.3709 90.3706 177.534 90.3706 285.055C90.3706 392.576 177.534 479.739 285.054 479.739Z" stroke="url(#paint15_linear_5_1310)" stroke-width="2.23922" stroke-miterlimit="10"/>
<path d="M285.054 474.158C389.493 474.158 474.158 389.494 474.158 285.055C474.158 180.616 389.493 95.9516 285.054 95.9516C180.616 95.9516 95.9512 180.616 95.9512 285.055C95.9512 389.494 180.616 474.158 285.054 474.158Z" stroke="url(#paint16_linear_5_1310)" stroke-width="2.23922" stroke-miterlimit="10"/>
<path d="M285.054 468.577C386.411 468.577 468.577 386.411 468.577 285.055C468.577 183.698 386.411 101.532 285.054 101.532C183.698 101.532 101.532 183.698 101.532 285.055C101.532 386.411 183.698 468.577 285.054 468.577Z" stroke="url(#paint17_linear_5_1310)" stroke-width="2.23922" stroke-miterlimit="10"/>
<path d="M285.054 463.007C383.335 463.007 463.006 383.335 463.006 285.055C463.006 186.775 383.335 107.103 285.054 107.103C186.774 107.103 107.103 186.775 107.103 285.055C107.103 383.335 186.774 463.007 285.054 463.007Z" stroke="url(#paint18_linear_5_1310)" stroke-width="2.23922" stroke-miterlimit="10"/>
<path d="M285.054 457.426C380.252 457.426 457.426 380.253 457.426 285.055C457.426 189.857 380.252 112.684 285.054 112.684C189.857 112.684 112.683 189.857 112.683 285.055C112.683 380.253 189.857 457.426 285.054 457.426Z" stroke="url(#paint19_linear_5_1310)" stroke-width="2.23922" stroke-miterlimit="10"/>
<path d="M285.054 451.845C377.17 451.845 451.845 377.17 451.845 285.055C451.845 192.939 377.17 118.264 285.054 118.264C192.939 118.264 118.264 192.939 118.264 285.055C118.264 377.17 192.939 451.845 285.054 451.845Z" stroke="url(#paint20_linear_5_1310)" stroke-width="2.23922" stroke-miterlimit="10"/>
<path d="M285.054 446.274C374.094 446.274 446.274 374.094 446.274 285.055C446.274 196.016 374.094 123.835 285.054 123.835C196.015 123.835 123.835 196.016 123.835 285.055C123.835 374.094 196.015 446.274 285.054 446.274Z" stroke="url(#paint21_linear_5_1310)" stroke-width="2.23922" stroke-miterlimit="10"/>
<path d="M285.054 435.113C367.929 435.113 435.113 367.93 435.113 285.055C435.113 202.18 367.929 134.997 285.054 134.997C202.18 134.997 134.996 202.18 134.996 285.055C134.996 367.93 202.18 435.113 285.054 435.113Z" stroke="url(#paint22_linear_5_1310)" stroke-width="2.23922" stroke-miterlimit="10"/>
<path d="M285.054 429.542C364.853 429.542 429.542 364.853 429.542 285.055C429.542 205.256 364.853 140.567 285.054 140.567C205.256 140.567 140.567 205.256 140.567 285.055C140.567 364.853 205.256 429.542 285.054 429.542Z" stroke="url(#paint23_linear_5_1310)" stroke-width="2.23922" stroke-miterlimit="10"/>
<path d="M285.054 423.962C361.771 423.962 423.961 361.771 423.961 285.055C423.961 208.339 361.771 146.148 285.054 146.148C208.338 146.148 146.148 208.339 146.148 285.055C146.148 361.771 208.338 423.962 285.054 423.962Z" stroke="url(#paint24_linear_5_1310)" stroke-width="2.23922" stroke-miterlimit="10"/>
<path d="M285.054 418.381C358.688 418.381 418.381 358.689 418.381 285.055C418.381 211.421 358.688 151.729 285.054 151.729C211.42 151.729 151.728 211.421 151.728 285.055C151.728 358.689 211.42 418.381 285.054 418.381Z" stroke="url(#paint25_linear_5_1310)" stroke-width="2.23922" stroke-miterlimit="10"/>
<path d="M285.054 412.81C355.612 412.81 412.81 355.612 412.81 285.055C412.81 214.497 355.612 157.299 285.054 157.299C214.497 157.299 157.299 214.497 157.299 285.055C157.299 355.612 214.497 412.81 285.054 412.81Z" stroke="url(#paint26_linear_5_1310)" stroke-width="2.23922" stroke-miterlimit="10"/>
<path d="M285.054 407.23C352.53 407.23 407.229 352.53 407.229 285.055C407.229 217.579 352.53 162.88 285.054 162.88C217.579 162.88 162.88 217.579 162.88 285.055C162.88 352.53 217.579 407.23 285.054 407.23Z" stroke="url(#paint27_linear_5_1310)" stroke-width="2.23922" stroke-miterlimit="10"/>
<path d="M285.054 401.649C349.448 401.649 401.649 349.448 401.649 285.055C401.649 220.662 349.448 168.461 285.054 168.461C220.661 168.461 168.46 220.662 168.46 285.055C168.46 349.448 220.661 401.649 285.054 401.649Z" stroke="url(#paint28_linear_5_1310)" stroke-width="2.23922" stroke-miterlimit="10"/>
<path d="M285.054 396.078C346.371 396.078 396.078 346.371 396.078 285.055C396.078 223.738 346.371 174.031 285.054 174.031C223.738 174.031 174.031 223.738 174.031 285.055C174.031 346.371 223.738 396.078 285.054 396.078Z" stroke="url(#paint29_linear_5_1310)" stroke-width="2.23922" stroke-miterlimit="10"/>
<path d="M285.054 384.917C340.207 384.917 384.916 340.207 384.916 285.055C384.916 229.902 340.207 185.193 285.054 185.193C229.902 185.193 185.193 229.902 185.193 285.055C185.193 340.207 229.902 384.917 285.054 384.917Z" stroke="url(#paint30_linear_5_1310)" stroke-width="2.23922" stroke-miterlimit="10"/>
<path d="M285.054 379.346C337.13 379.346 379.346 337.13 379.346 285.055C379.346 232.979 337.13 190.763 285.054 190.763C232.979 190.763 190.763 232.979 190.763 285.055C190.763 337.13 232.979 379.346 285.054 379.346Z" stroke="url(#paint31_linear_5_1310)" stroke-width="2.23922" stroke-miterlimit="10"/>
<path d="M285.054 368.185C330.966 368.185 368.184 330.966 368.184 285.055C368.184 239.143 330.966 201.925 285.054 201.925C239.143 201.925 201.925 239.143 201.925 285.055C201.925 330.966 239.143 368.185 285.054 368.185Z" stroke="url(#paint32_linear_5_1310)" stroke-width="2.23922" stroke-miterlimit="10"/>
<path d="M285.054 362.614C327.889 362.614 362.614 327.89 362.614 285.055C362.614 242.22 327.889 207.495 285.054 207.495C242.22 207.495 207.495 242.22 207.495 285.055C207.495 327.89 242.22 362.614 285.054 362.614Z" stroke="url(#paint33_linear_5_1310)" stroke-width="2.23922" stroke-miterlimit="10"/>
<path d="M285.054 357.033C324.807 357.033 357.033 324.807 357.033 285.055C357.033 245.302 324.807 213.076 285.054 213.076C245.302 213.076 213.076 245.302 213.076 285.055C213.076 324.807 245.302 357.033 285.054 357.033Z" stroke="url(#paint34_linear_5_1310)" stroke-width="2.23922" stroke-miterlimit="10"/>
<path d="M285.054 351.452C321.725 351.452 351.452 321.725 351.452 285.055C351.452 248.384 321.725 218.657 285.054 218.657C248.384 218.657 218.657 248.384 218.657 285.055C218.657 321.725 248.384 351.452 285.054 351.452Z" stroke="url(#paint35_linear_5_1310)" stroke-width="2.23922" stroke-miterlimit="10"/>
<path d="M285.054 345.882C318.648 345.882 345.882 318.649 345.882 285.055C345.882 251.461 318.648 224.228 285.054 224.228C251.461 224.228 224.227 251.461 224.227 285.055C224.227 318.649 251.461 345.882 285.054 345.882Z" stroke="url(#paint36_linear_5_1310)" stroke-width="2.23922" stroke-miterlimit="10"/>
<path d="M285.054 340.301C315.566 340.301 340.301 315.567 340.301 285.055C340.301 254.543 315.566 229.808 285.054 229.808C254.543 229.808 229.808 254.543 229.808 285.055C229.808 315.567 254.543 340.301 285.054 340.301Z" stroke="url(#paint37_linear_5_1310)" stroke-width="2.23922" stroke-miterlimit="10"/>
<path d="M285.054 329.15C309.408 329.15 329.15 309.408 329.15 285.055C329.15 260.702 309.408 240.96 285.054 240.96C260.701 240.96 240.959 260.702 240.959 285.055C240.959 309.408 260.701 329.15 285.054 329.15Z" stroke="url(#paint38_linear_5_1310)" stroke-width="2.23922" stroke-miterlimit="10"/>
<defs>
<linearGradient id="paint0_linear_5_1310" x1="505.063" y1="-4.3588" x2="47.1431" y2="521.857" gradientUnits="userSpaceOnUse">
<stop/>
<stop offset="1" stop-opacity="0"/>
</linearGradient>
<linearGradient id="paint1_linear_5_1310" x1="505.063" y1="-4.35878" x2="47.1428" y2="521.857" gradientUnits="userSpaceOnUse">
<stop/>
<stop offset="1" stop-opacity="0"/>
</linearGradient>
<linearGradient id="paint2_linear_5_1310" x1="505.063" y1="-4.35879" x2="47.143" y2="521.857" gradientUnits="userSpaceOnUse">
<stop/>
<stop offset="1" stop-opacity="0"/>
</linearGradient>
<linearGradient id="paint3_linear_5_1310" x1="505.063" y1="-4.3588" x2="47.1428" y2="521.857" gradientUnits="userSpaceOnUse">
<stop/>
<stop offset="1" stop-opacity="0"/>
</linearGradient>
<linearGradient id="paint4_linear_5_1310" x1="505.063" y1="-4.35878" x2="47.1431" y2="521.857" gradientUnits="userSpaceOnUse">
<stop/>
<stop offset="1" stop-opacity="0"/>
</linearGradient>
<linearGradient id="paint5_linear_5_1310" x1="505.063" y1="-4.3588" x2="47.1429" y2="521.857" gradientUnits="userSpaceOnUse">
<stop/>
<stop offset="1" stop-opacity="0"/>
</linearGradient>
<linearGradient id="paint6_linear_5_1310" x1="505.063" y1="-4.35879" x2="47.1427" y2="521.857" gradientUnits="userSpaceOnUse">
<stop/>
<stop offset="1" stop-opacity="0"/>
</linearGradient>
<linearGradient id="paint7_linear_5_1310" x1="505.063" y1="-4.35883" x2="47.1429" y2="521.857" gradientUnits="userSpaceOnUse">
<stop/>
<stop offset="1" stop-opacity="0"/>
</linearGradient>
<linearGradient id="paint8_linear_5_1310" x1="505.063" y1="-4.3588" x2="47.1428" y2="521.857" gradientUnits="userSpaceOnUse">
<stop/>
<stop offset="1" stop-opacity="0"/>
</linearGradient>
<linearGradient id="paint9_linear_5_1310" x1="505.063" y1="-4.35883" x2="47.143" y2="521.857" gradientUnits="userSpaceOnUse">
<stop/>
<stop offset="1" stop-opacity="0"/>
</linearGradient>
<linearGradient id="paint10_linear_5_1310" x1="505.063" y1="-4.35881" x2="47.1429" y2="521.857" gradientUnits="userSpaceOnUse">
<stop/>
<stop offset="1" stop-opacity="0"/>
</linearGradient>
<linearGradient id="paint11_linear_5_1310" x1="505.063" y1="-4.35881" x2="47.1431" y2="521.857" gradientUnits="userSpaceOnUse">
<stop/>
<stop offset="1" stop-opacity="0"/>
</linearGradient>
<linearGradient id="paint12_linear_5_1310" x1="505.063" y1="-4.3588" x2="47.1427" y2="521.857" gradientUnits="userSpaceOnUse">
<stop/>
<stop offset="1" stop-opacity="0"/>
</linearGradient>
<linearGradient id="paint13_linear_5_1310" x1="505.063" y1="-4.35882" x2="47.1429" y2="521.857" gradientUnits="userSpaceOnUse">
<stop/>
<stop offset="1" stop-opacity="0"/>
</linearGradient>
<linearGradient id="paint14_linear_5_1310" x1="505.063" y1="-4.35879" x2="47.1427" y2="521.857" gradientUnits="userSpaceOnUse">
<stop/>
<stop offset="1" stop-opacity="0"/>
</linearGradient>
<linearGradient id="paint15_linear_5_1310" x1="505.063" y1="-4.35877" x2="47.143" y2="521.857" gradientUnits="userSpaceOnUse">
<stop/>
<stop offset="1" stop-opacity="0"/>
</linearGradient>
<linearGradient id="paint16_linear_5_1310" x1="505.063" y1="-4.3588" x2="47.1428" y2="521.857" gradientUnits="userSpaceOnUse">
<stop/>
<stop offset="1" stop-opacity="0"/>
</linearGradient>
<linearGradient id="paint17_linear_5_1310" x1="505.063" y1="-4.35881" x2="47.1427" y2="521.857" gradientUnits="userSpaceOnUse">
<stop/>
<stop offset="1" stop-opacity="0"/>
</linearGradient>
<linearGradient id="paint18_linear_5_1310" x1="505.063" y1="-4.3588" x2="47.143" y2="521.857" gradientUnits="userSpaceOnUse">
<stop/>
<stop offset="1" stop-opacity="0"/>
</linearGradient>
<linearGradient id="paint19_linear_5_1310" x1="505.063" y1="-4.35881" x2="47.1431" y2="521.857" gradientUnits="userSpaceOnUse">
<stop/>
<stop offset="1" stop-opacity="0"/>
</linearGradient>
<linearGradient id="paint20_linear_5_1310" x1="505.063" y1="-4.35879" x2="47.1427" y2="521.857" gradientUnits="userSpaceOnUse">
<stop/>
<stop offset="1" stop-opacity="0"/>
</linearGradient>
<linearGradient id="paint21_linear_5_1310" x1="505.063" y1="-4.35881" x2="47.1429" y2="521.857" gradientUnits="userSpaceOnUse">
<stop/>
<stop offset="1" stop-opacity="0"/>
</linearGradient>
<linearGradient id="paint22_linear_5_1310" x1="505.063" y1="-4.3588" x2="47.143" y2="521.857" gradientUnits="userSpaceOnUse">
<stop/>
<stop offset="1" stop-opacity="0"/>
</linearGradient>
<linearGradient id="paint23_linear_5_1310" x1="505.063" y1="-4.35877" x2="47.1429" y2="521.857" gradientUnits="userSpaceOnUse">
<stop/>
<stop offset="1" stop-opacity="0"/>
</linearGradient>
<linearGradient id="paint24_linear_5_1310" x1="505.063" y1="-4.35879" x2="47.1429" y2="521.857" gradientUnits="userSpaceOnUse">
<stop/>
<stop offset="1" stop-opacity="0"/>
</linearGradient>
<linearGradient id="paint25_linear_5_1310" x1="505.063" y1="-4.3588" x2="47.143" y2="521.857" gradientUnits="userSpaceOnUse">
<stop/>
<stop offset="1" stop-opacity="0"/>
</linearGradient>
<linearGradient id="paint26_linear_5_1310" x1="505.063" y1="-4.35876" x2="47.1428" y2="521.857" gradientUnits="userSpaceOnUse">
<stop/>
<stop offset="1" stop-opacity="0"/>
</linearGradient>
<linearGradient id="paint27_linear_5_1310" x1="505.063" y1="-4.35878" x2="47.1429" y2="521.857" gradientUnits="userSpaceOnUse">
<stop/>
<stop offset="1" stop-opacity="0"/>
</linearGradient>
<linearGradient id="paint28_linear_5_1310" x1="505.063" y1="-4.35879" x2="47.143" y2="521.857" gradientUnits="userSpaceOnUse">
<stop/>
<stop offset="1" stop-opacity="0"/>
</linearGradient>
<linearGradient id="paint29_linear_5_1310" x1="505.063" y1="-4.35879" x2="47.1428" y2="521.857" gradientUnits="userSpaceOnUse">
<stop/>
<stop offset="1" stop-opacity="0"/>
</linearGradient>
<linearGradient id="paint30_linear_5_1310" x1="505.063" y1="-4.3588" x2="47.1429" y2="521.857" gradientUnits="userSpaceOnUse">
<stop/>
<stop offset="1" stop-opacity="0"/>
</linearGradient>
<linearGradient id="paint31_linear_5_1310" x1="505.063" y1="-4.3588" x2="47.1427" y2="521.857" gradientUnits="userSpaceOnUse">
<stop/>
<stop offset="1" stop-opacity="0"/>
</linearGradient>
<linearGradient id="paint32_linear_5_1310" x1="505.063" y1="-4.35882" x2="47.1428" y2="521.857" gradientUnits="userSpaceOnUse">
<stop/>
<stop offset="1" stop-opacity="0"/>
</linearGradient>
<linearGradient id="paint33_linear_5_1310" x1="505.063" y1="-4.35884" x2="47.1431" y2="521.857" gradientUnits="userSpaceOnUse">
<stop/>
<stop offset="1" stop-opacity="0"/>
</linearGradient>
<linearGradient id="paint34_linear_5_1310" x1="505.063" y1="-4.35879" x2="47.1427" y2="521.857" gradientUnits="userSpaceOnUse">
<stop/>
<stop offset="1" stop-opacity="0"/>
</linearGradient>
<linearGradient id="paint35_linear_5_1310" x1="505.063" y1="-4.35882" x2="47.1427" y2="521.857" gradientUnits="userSpaceOnUse">
<stop/>
<stop offset="1" stop-opacity="0"/>
</linearGradient>
<linearGradient id="paint36_linear_5_1310" x1="505.063" y1="-4.35878" x2="47.143" y2="521.857" gradientUnits="userSpaceOnUse">
<stop/>
<stop offset="1" stop-opacity="0"/>
</linearGradient>
<linearGradient id="paint37_linear_5_1310" x1="505.063" y1="-4.35881" x2="47.1431" y2="521.857" gradientUnits="userSpaceOnUse">
<stop/>
<stop offset="1" stop-opacity="0"/>
</linearGradient>
<linearGradient id="paint38_linear_5_1310" x1="505.063" y1="-4.35876" x2="47.143" y2="521.857" gradientUnits="userSpaceOnUse">
<stop/>
<stop offset="1" stop-opacity="0"/>
</linearGradient>
</defs>
</svg>
