<svg width="673" height="549" viewBox="0 0 673 549" fill="none" xmlns="http://www.w3.org/2000/svg">
<g filter="url(#filter0_f_7_1311)">
<mask id="mask0_7_1311" style="mask-type:alpha" maskUnits="userSpaceOnUse" x="0" y="45" width="673" height="460">
<path d="M421.614 183.832V206.224L436.169 254.367L461.92 231.975L476.475 247.649L512.303 231.975L526.858 247.649L549.25 231.975L569.403 259.965L588.436 240.932L604.111 259.965L615.307 254.367L642.177 277.879L664.569 259.965L672.407 191.669L623.144 106.579L549.25 45L534.695 96.5016L512.303 84.1866L502.226 143.526L467.518 131.21L461.92 160.32H442.887L436.169 191.669L421.614 183.832Z" fill="white" fill-opacity="0.2"/>
<path d="M312.414 330.096L306.858 308.404L277.329 266.269L251.774 295.929L230.301 285.249L190.905 311.519L169.431 300.838L146.267 322.951L114.975 302.072L96.7023 326.4L73.0429 312.812L60.9053 321.699L22.6084 307.237L0 331.519L7.4762 400.105L88.1042 467.291L192.657 504.08L197.464 449.684L227.572 454.686L225.024 394.085L270.011 395.276L269.552 365.344L292.547 359.455L292.885 327.007L312.414 330.096Z" fill="white" fill-opacity="0.18"/>
</mask>
<g mask="url(#mask0_7_1311)">
<path d="M339.883 540.867C497.56 540.867 625.383 413.044 625.383 255.367C625.383 97.6893 497.56 -30.1334 339.883 -30.1334C182.206 -30.1334 54.3828 97.6893 54.3828 255.367C54.3828 413.044 182.206 540.867 339.883 540.867Z" fill="#D9D9D9"/>
</g>
</g>
<defs>
<filter id="filter0_f_7_1311" x="9.60281" y="0.220001" width="660.56" height="548.64" filterUnits="userSpaceOnUse" color-interpolation-filters="sRGB">
<feFlood flood-opacity="0" result="BackgroundImageFix"/>
<feBlend mode="normal" in="SourceGraphic" in2="BackgroundImageFix" result="shape"/>
<feGaussianBlur stdDeviation="22.39" result="effect1_foregroundBlur_7_1311"/>
</filter>
</defs>
</svg>
