<?xml version="1.0" encoding="utf-8"?>
<!-- Generator: Adobe Illustrator 27.2.0, SVG Export Plug-In . SVG Version: 6.00 Build 0)  -->
<svg version="1.1" id="Layer_1" xmlns="http://www.w3.org/2000/svg" xmlns:xlink="http://www.w3.org/1999/xlink" x="0px" y="0px"
	 viewBox="0 0 595.43 112.83" style="enable-background:new 0 0 595.43 112.83;" xml:space="preserve">
<style type="text/css">
	.st0{fill:#C0DDC3;}
</style>
<g>
	<g>
		<path class="st0" d="M134.46,85.2c-19.6,0-27.56-11.79-27.56-11.79l9.32-7.97c0,0,6.85,7.41,18.32,7.41
			c7.73,0,12.59-1.67,12.59-5.5c0-3.66-3.98-4.62-8.76-5.02l-9.56-0.8c-12.03-1.04-20.31-6.53-20.31-17.21
			c0-10.76,9.56-18.08,23.5-18.08c17.77,0,25.49,11.55,25.49,11.55l-9.56,7.49c0,0-5.02-6.69-15.93-6.69
			c-7.49,0-10.99,2.07-10.99,5.42c0,2.87,2.71,4.46,7.81,4.86l9.56,0.8c12.43,1.04,21.51,5.9,21.51,17.05
			C159.88,77.87,150,85.2,134.46,85.2"/>
		<path class="st0" d="M204.59,55.72c0-10.2-7.33-17.13-17.29-17.13c-9.96,0-17.29,7.33-17.29,17.13c0,10.2,7.33,17.13,17.29,17.13
			C197.26,72.85,204.59,65.52,204.59,55.72 M157.67,55.72c0-17.61,13.07-29.48,29.64-29.48s29.64,11.87,29.64,29.48
			S203.87,85.2,187.3,85.2C170.33,85.2,157.67,73.33,157.67,55.72"/>
		<path class="st0" d="M265.85,27.84V60.1c0,15.38-11.07,25.09-24.86,25.09c-13.78,0-24.86-9.72-24.86-25.09V27.84h12.35V59.7
			c0,8.52,5.58,13.14,12.51,13.14c6.93,0,12.51-4.62,12.51-13.14V27.84H265.85z"/>
	</g>
	<polygon class="st0" points="303.6,83.6 280.73,39.15 280.73,83.6 268.38,83.6 268.38,27.84 288.46,27.84 311.56,72.77 
		311.56,27.84 323.91,27.84 323.91,83.6 	"/>
	<g>
		<path class="st0" d="M368.26,55.72c0-9.08-6.29-15.54-15.45-15.54h-13.54v31.07h13.46C361.89,71.26,368.26,64.8,368.26,55.72
			 M326.92,83.6V27.84h26.45c10.6,0,27.33,6.45,27.33,27.88c0,21.43-17.53,27.88-28.12,27.88H326.92z"/>
	</g>
	<polygon class="st0" points="438.5,83.6 438.5,41.3 424,83.6 407.04,83.6 392.54,41.3 392.54,83.6 380.19,83.6 380.19,27.84 
		400.26,27.84 415.48,71.41 430.78,27.84 450.85,27.84 450.85,83.6 	"/>
	<rect x="454.04" y="27.84" class="st0" width="12.35" height="55.77"/>
	<polygon class="st0" points="573.76,40.19 573.76,27.84 512.75,27.84 512.75,72.77 489.65,27.84 469.57,27.84 469.57,83.6 
		481.92,83.6 481.92,39.15 504.78,83.6 525.1,83.6 525.1,40.19 542.69,40.19 542.69,83.6 555.04,83.6 555.04,40.19 	"/>
</g>
<g>
	<path class="st0" d="M584.88,33.49c0.67,0,1-0.28,1-0.79c0-0.49-0.3-0.79-0.97-0.79h-1.2v1.58H584.88z M581.72,30.36h3.52
		c1.46,0,2.67,0.69,2.67,2.09c0,0.81-0.42,1.41-1.21,1.72v0.03c0.63,0.21,0.91,0.62,1.02,1.28c0.16,0.88,0.07,1.72,0.33,1.85v0.14
		h-1.99c-0.21-0.12-0.14-0.93-0.28-1.63c-0.12-0.63-0.39-0.9-1.07-0.9h-0.98v2.53h-2V30.36z M590.03,33.94
		c0-3.23-2.32-5.64-5.4-5.64c-3.09,0-5.41,2.41-5.41,5.64c0,3.22,2.32,5.62,5.41,5.62C587.71,39.57,590.03,37.16,590.03,33.94
		 M578.15,33.94c0-3.76,2.86-6.56,6.49-6.56c3.62,0,6.47,2.79,6.47,6.56c0,3.76-2.85,6.54-6.47,6.54
		C581.02,40.48,578.15,37.71,578.15,33.94"/>
</g>
<path class="st0" d="M88.2,5.63L53.51,22.36c-3.3,1.59-5.4,4.93-5.4,8.6v14.99L13,28.95v15.83c0,3.66,2.1,7,5.4,8.6l28.84,13.91
	L8.02,86.19v21.75l34.71-16.8c3.29-1.59,5.38-4.93,5.38-8.59V67.7l35.11,16.93v-15.7c0-3.66-2.09-6.99-5.38-8.59L48.9,46.33
	L88.2,27.3V5.63z"/>
</svg>
